<svg xmlns="http://www.w3.org/2000/svg" viewBox="0 0 40 40" width="30" height="30"><path fill="none" stroke="#5e9c76" stroke-linecap="round" stroke-linejoin="round" stroke-miterlimit="10" d="M38.5,1.5	c-2.221,3.716-7,6.105-7,6.105"/><path fill="#cee0a1" d="M1.506,38.496c0.042-2.064,0.388-7.927,2.886-10.425c4.241-4.242,9.071-4.875,11.572-4.875 c0.525,0,0.943,0.028,1.224,0.055c0.032,1.509-0.202,7.067-4.96,11.825C9.412,37.89,4.497,38.443,1.506,38.496z"/><path fill="#5e9c76" d="M15.963,23.695c0.273,0,0.516,0.008,0.723,0.019c-0.039,1.895-0.583,6.777-4.813,11.007 c-2.538,2.538-6.921,3.155-9.855,3.26c0.124-3.471,0.885-7.716,2.727-9.558C8.859,24.31,13.54,23.695,15.963,23.695 M15.963,22.695 c-2.554,0-7.546,0.643-11.925,5.021C1.446,30.309,1,36.264,1,39c2.833,0,8.408-0.399,11.581-3.571 c5.783-5.783,5.085-12.623,5.085-12.623S17.025,22.695,15.963,22.695L15.963,22.695z"/><path fill="#cee0a1" d="M11.501,38.497c-0.015-2.452,0.021-7.364,4.085-11.427c1.844-1.844,4.157-2.778,6.878-2.778 c2.165,0,3.92,0.614,4.397,0.798c0.479,0.75,2.795,5.096-3.921,10.399C20.452,37.453,16.707,38.438,11.501,38.497z"/><path fill="#5e9c76" d="M22.464,24.792L22.464,24.792c1.888,0,3.452,0.487,4.057,0.705c0.541,0.96,2.141,4.838-3.891,9.6 C20.346,36.9,16.773,37.871,12,37.988c0.009-2.509,0.284-6.909,3.939-10.564C17.685,25.677,19.881,24.792,22.464,24.792 M22.463,23.792c-2.244,0-4.932,0.626-7.232,2.925c-4.52,4.52-4.228,10.1-4.228,12.283c3.013,0,8.615-0.252,12.246-3.119 c7.739-6.11,3.938-11.199,3.938-11.199S25.142,23.792,22.463,23.792L22.463,23.792z"/><path fill="#cee0a1" d="M1.503,28.499c0.059-5.205,1.044-8.95,3.009-11.438c2.418-3.063,5.029-4.682,7.553-4.682 c1.499,0,2.528,0.562,2.848,0.763c0.386,0.975,2.442,6.848-1.982,11.272C9.269,28.076,4.868,28.5,1.876,28.5L1.503,28.499z"/><path fill="#5e9c76" d="M12.064,12.879c1.189,0,2.063,0.396,2.444,0.606c0.469,1.274,2.074,6.57-1.932,10.576 C9.1,27.537,4.911,27.987,2.012,28c0.117-4.773,1.088-8.346,2.892-10.63C7.223,14.432,9.699,12.879,12.064,12.879 M12.064,11.879 c-2.04,0-4.863,0.967-7.945,4.872C1.252,20.382,1,25.983,1,28.996C1.25,28.996,1.544,29,1.875,29c2.57,0,7.405-0.229,11.408-4.232 c5.044-5.044,2.034-11.956,2.034-11.956S14.068,11.879,12.064,11.879L12.064,11.879z"/><path fill="#cee0a1" d="M11.355,28.645c0.042-2.615,0.456-10.821,3.93-14.295c2.761-2.761,5.465-4.161,8.036-4.161 c3.093,0,4.94,2.092,4.959,2.113c0.073,0.07,1.671,1.453,1.771,3.896c0.099,2.423-1.247,5.048-4.001,7.802 C22.172,27.877,15.382,28.592,11.355,28.645z"/><path fill="#5e9c76" d="M23.321,10.688c2.849,0,4.512,1.862,4.578,1.937l0.054,0.063l0.064,0.053 c0.014,0.012,1.436,1.26,1.533,3.457c0.101,2.283-1.195,4.788-3.854,7.447c-3.595,3.595-9.84,4.384-13.829,4.489 c0.087-2.995,0.628-10.288,3.771-13.432C18.303,12.039,20.887,10.688,23.321,10.688 M23.321,9.688c-2.23,0-5.079,0.997-8.389,4.307 c-3.481,3.481-4.08,11.478-4.08,15.152c3.805,0,11.291-0.535,15.552-4.796c7.766-7.766,2.255-12.378,2.255-12.378 S26.699,9.688,23.321,9.688L23.321,9.688z"/><g><path fill="#cee0a1" d="M23.831,37c-1.982-5.426-2.024-9.942-0.123-13.427c2.319-4.254,6.869-5.635,7.801-5.879 c0.977,0.534,5.886,3.53,3.655,8.788C32.74,32.194,29.03,35.639,23.831,37z"/><path fill="#5e9c76" d="M31.445,18.23c1.196,0.691,5.221,3.43,3.259,8.056c-2.289,5.395-5.748,8.71-10.558,10.107 c-1.774-5.081-1.778-9.304-0.009-12.563C26.222,19.987,30.255,18.574,31.445,18.23 M31.574,17.163c0,0-14.643,3.103-8.055,20.429 c5.135-1.213,9.34-4.396,12.105-10.915C38.261,20.46,31.574,17.163,31.574,17.163L31.574,17.163z"/></g><g><path fill="#cee0a1" d="M10.582,17.685c-2.276,0-4.825-0.51-7.582-1.516c1.362-5.2,4.807-8.91,10.519-11.333 c0.901-0.382,1.788-0.576,2.638-0.576c3.592,0,5.72,3.46,6.15,4.235C21.976,9.812,19.616,17.685,10.582,17.685z"/><path fill="#5e9c76" d="M16.156,4.76L16.156,4.76c3.096,0,5.053,2.861,5.615,3.808c-0.459,1.677-2.862,8.617-11.189,8.617 c-2.099,0-4.442-0.447-6.977-1.331c1.397-4.809,4.712-8.269,10.107-10.558C14.552,4.941,15.374,4.76,16.156,4.76 M16.155,3.76 c-0.864,0-1.809,0.182-2.833,0.616c-6.519,2.766-9.702,6.97-10.915,12.105c3.182,1.21,5.884,1.704,8.175,1.704 c10.186,0,12.254-9.759,12.254-9.759S20.537,3.76,16.155,3.76L16.155,3.76z"/></g><g><path fill="#bae0bd" d="M33.992,31.261c-1.058-1.105-4.116-4.558-5.794-9.148l-0.159-0.435l-0.446,0.125 c-0.957,0.27-2.028,0.407-3.184,0.407c-2.615,0-4.968-0.703-5.681-0.938c-0.327-0.996-1.565-5.193-0.529-8.864l0.126-0.446 l-0.436-0.159c-4.586-1.674-8.036-4.729-9.146-5.792C10.131,4.909,14.901,1.5,20.793,1.5c4.387,0,8.478,1.867,12.16,5.548 C43.79,17.886,35.839,28.988,33.992,31.261z"/><path fill="#5e9c76" d="M20.793,2c4.249,0,8.222,1.817,11.806,5.402c9.941,9.942,3.601,20.131,1.359,23.091 c-1.261-1.386-3.815-4.515-5.29-8.552L28.35,21.07l-0.892,0.252c-0.913,0.258-1.938,0.388-3.048,0.388 c-2.302,0-4.398-0.562-5.283-0.836c-0.392-1.27-1.376-5.036-0.446-8.33l0.252-0.893l-0.872-0.318 c-4.018-1.467-7.153-4.021-8.546-5.286C11.268,4.742,15.573,2,20.793,2 M20.793,1C13.515,1,8,5.978,8,5.978 s3.948,4.187,9.718,6.294c-1.24,4.39,0.617,9.393,0.617,9.393s2.815,1.045,6.074,1.045c1.086,0,2.222-0.116,3.319-0.426 C29.837,28.054,34.021,32,34.021,32s11.665-12.925-0.715-25.306C29.013,2.402,24.655,1,20.793,1L20.793,1z"/></g></svg>